<?xml version="1.0" encoding="utf-8"?>
<svg width="700px" height="500px" version="1.1" preserveAspectRatio="xMidYMid" viewBox="0 0 700 500" xmlns="http://www.w3.org/2000/svg" xmlns:bx="https://boxy-svg.com">
  <path d="M 354.016 361.501 C 338.57 383.861 322.744 403.994 298.55 429.924 C 286.272 442.323 282.36 445.936 278.463 449.343 C 229.155 492.444 178.517 510.329 148.345 492.93 C 119.134 476.081 109.955 426.927 121.708 365.023 C 122.948 358.492 124.424 351.796 126.122 344.962 C 120.892 343.462 115.818 341.881 110.927 340.21 C 48.956 319.028 8.165 284.095 8.165 249.268 C 8.165 215.546 46.163 183.036 105.66 162.293 C 112.31 159.975 119.261 157.796 126.46 155.752 C 124.886 149.434 123.495 143.221 122.305 137.136 C 109.978 74.138 118.651 23.794 147.941 6.839 C 178.485 -10.843 229.353 8.145 293.173 66.068 C 322.041 95.964 338.016 115.865 353.329 137.621 L 340.408 161.177 C 323.703 159.904 306.547 159.24 289.154 159.24 L 289.153 159.24 C 271.832 159.24 254.694 159.899 237.981 161.162 C 228.544 174.98 219.41 189.493 210.731 204.543 L 210.733 204.54 C 202.077 219.549 194.086 234.73 186.828 249.844 C 194.088 264.922 202.1 280.086 210.806 295.123 L 210.804 295.123 C 219.533 310.201 228.748 324.784 238.273 338.689 C 254.654 339.753 271.665 340.296 289.154 340.296 C 306.713 340.296 323.941 339.682 340.618 338.489 L 340.617 337.836 L 354.016 361.265 L 354.016 361.501 Z M 262.665 431.266 C 266.216 428.161 269.788 424.866 273.373 421.405 C 256.964 403.796 240.68 383.684 225.131 361.805 C 197.898 359.597 172.419 355.934 149.398 350.843 C 147.819 357.209 146.448 363.437 145.297 369.5 C 135.245 422.441 142.614 461.907 160.34 472.131 C 168.671 476.935 182.452 476.759 199.756 470.649 C 219.012 463.847 240.862 450.325 262.665 431.266 Z M 132.563 321.836 C 139.664 298.693 149.02 274.395 160.296 249.852 C 149.164 225.667 139.939 201.751 132.907 178.876 C 126.2 180.781 119.737 182.81 113.563 184.963 C 62.68 202.703 32.171 228.804 32.171 249.268 C 32.171 258.884 39.209 270.734 53.147 282.671 C 68.659 295.954 91.289 308.127 118.691 317.493 C 123.149 319.015 127.781 320.462 132.563 321.836 Z M 149.728 149.839 C 172.989 144.569 198.289 140.634 224.719 138.184 C 240.131 116.433 256.265 96.473 272.593 78.941 C 269.774 76.248 266.962 73.645 264.161 71.158 C 220.343 32.251 178.769 16.732 159.968 27.617 C 142.318 37.834 135.304 78.55 145.865 132.525 C 146.97 138.176 148.266 143.956 149.728 149.839 Z M 256.071 136.006 C 266.995 135.496 278.04 135.232 289.154 135.232 C 300.373 135.232 311.501 135.502 322.492 136.021 C 311.585 121.489 300.495 108.095 289.422 96.098 C 278.175 108.233 266.99 121.609 256.071 136.006 Z M 189.934 192.547 C 195.503 182.889 201.259 173.442 207.161 164.236 C 189.344 166.46 172.246 169.394 156.212 172.982 C 161.098 188.725 167.079 205.029 174.07 221.609 C 179.087 211.886 184.379 202.181 189.934 192.549 L 189.934 192.547 Z M 190.03 307.151 L 190.029 307.151 C 184.44 297.498 179.127 287.789 174.097 278.073 C 166.957 295.01 160.845 311.662 155.881 327.686 C 171.911 331.175 189.266 333.958 207.674 336.012 C 201.62 326.618 195.722 316.985 190.03 307.151 Z M 323.077 363.549 C 311.932 364.045 300.608 364.303 289.154 364.303 C 278.004 364.303 267.034 364.087 256.273 363.665 C 267.358 378.273 278.707 391.853 290.086 404.13 C 301.084 392.021 312.134 378.42 323.077 363.549 Z" fill="#00D8FF"/>
  <rect x="288.241" y="236.148" width="339.46" height="27.186" style="fill: rgb(0, 216, 255);"/>
  <path d="M 662 347.333 m -36.327 0 a 36.327 36.327 0 1 0 72.654 0 a 36.327 36.327 0 1 0 -72.654 0 Z M 662 347.333 m -14.68 0 a 14.68 14.68 0 0 1 29.36 0 a 14.68 14.68 0 0 1 -29.36 0 Z" style="fill: rgb(0, 216, 255);" transform="matrix(-0.890906, 0.454188, -0.454188, -0.890906, 1402.505951, 258.509613)" bx:shape="ring 662 347.333 14.68 14.68 36.327 36.327 1@51f6269c"/>
  <circle style="fill: rgb(0, 216, 255);" cx="289.007" cy="249.741" r="50.722"/>
  <rect x="193.706" y="386.975" width="173.421" height="28.085" style="fill: rgb(0, 216, 255);" transform="matrix(0.492176, 0.870496, -0.870496, 0.492176, 542.948608, -91.06263)"/>
  <rect x="363.558" y="405.427" width="129.305" height="27.186" style="fill: rgb(0, 216, 255);"/>
  <path d="M 662 347.333 m -36.327 0 a 36.327 36.327 0 1 0 72.654 0 a 36.327 36.327 0 1 0 -72.654 0 Z M 662 347.333 m -14.68 0 a 14.68 14.68 0 0 1 29.36 0 a 14.68 14.68 0 0 1 -29.36 0 Z" style="fill: rgb(0, 216, 255);" transform="matrix(-0.890906, 0.454188, -0.454188, -0.890906, 1255.140594, 426.203521)" bx:shape="ring 662 347.333 14.68 14.68 36.327 36.327 1@51f6269c"/>
  <rect x="-193.706" y="-386.975" width="173.421" height="28.085" style="fill: rgb(0, 216, 255);" transform="matrix(0.492176, -0.870496, -0.870496, -0.492176, 59.889416, -128.058495)"/>
  <rect x="363.544" y="-93.612" width="129.305" height="27.186" style="fill: rgb(0, 216, 255);" transform="matrix(1, 0, 0, -1, 0, 0)"/>
  <path d="M 662 347.333 m -36.327 0 a 36.327 36.327 0 1 0 72.654 0 a 36.327 36.327 0 1 0 -72.654 0 Z M 662 347.333 m -14.68 0 a 14.68 14.68 0 0 1 29.36 0 a 14.68 14.68 0 0 1 -29.36 0 Z" style="fill: rgb(0, 216, 255);" transform="matrix(-0.890906, -0.454188, -0.454188, 0.890906, 1261.126556, 72.835556)" bx:shape="ring 662 347.333 14.68 14.68 36.327 36.327 1@51f6269c"/>
  <path d="M 662 347.333 m -36.327 0 a 36.327 36.327 0 1 0 72.654 0 a 36.327 36.327 0 1 0 -72.654 0 Z M 662 347.333 m -14.68 0 a 14.68 14.68 0 0 1 29.36 0 a 14.68 14.68 0 0 1 -29.36 0 Z" style="fill: rgb(0, 216, 255);" transform="matrix(-0.890906, 0.454188, -0.454188, -0.890906, 1332.062225, 343.796478)" bx:shape="ring 662 347.333 14.68 14.68 36.327 36.327 1@51f6269c"/>
  <rect x="428.188" y="321.854" width="126.697" height="27.186" style="fill: rgb(0, 216, 255);"/>
  <rect x="117.606" y="386.975" width="105.29" height="28.085" style="fill: rgb(0, 216, 255);" transform="matrix(0.492176, 0.870496, -0.870496, 0.492176, 680.013, -50.270889)"/>
  <path d="M 662 347.333 m -36.327 0 a 36.327 36.327 0 1 0 72.654 0 a 36.327 36.327 0 1 0 -72.654 0 Z M 662 347.333 m -14.68 0 a 14.68 14.68 0 0 1 29.36 0 a 14.68 14.68 0 0 1 -29.36 0 Z" style="fill: rgb(0, 216, 255);" transform="matrix(-0.890906, -0.454188, -0.454188, 0.890906, 1332.038788, 149.835541)" bx:shape="ring 662 347.333 14.68 14.68 36.327 36.327 1@51f6269c"/>
  <rect x="428.165" y="-171.779" width="126.697" height="27.186" style="fill: rgb(0, 216, 255);" transform="matrix(1, 0, 0, -1, 0, 0)"/>
  <rect x="-117.606" y="-386.975" width="105.29" height="28.085" style="fill: rgb(0, 216, 255);" transform="matrix(0.492176, -0.870496, -0.870496, -0.492176, 122.034803, -41.767796)"/>
</svg>